HIERARCHY
ROOT Hips
{
    OFFSET 0.11995139718055725 0.8053943514823914 -0.1620987206697464
    CHANNELS 6 Xposition Yposition Zposition Yrotation Zrotation Xrotation
    JOINT RightUpLeg
    {
        OFFSET -0.11995139718055725 0.0 0.0
        CHANNELS 3 Yrotation Zrotation Xrotation
        JOINT RightLeg
        {
            OFFSET 0.0 -0.40014755725860596 0.0
            CHANNELS 3 Yrotation Zrotation Xrotation
            JOINT RightFoot
            {
                OFFSET 0.0 -0.4052467942237854 0.0
                CHANNELS 3 Yrotation Zrotation Xrotation
                End Site RightFoot_End
                {
                    OFFSET 0.0 0.0 0.1620987206697464
                }
            }
        }
    }
    JOINT LeftUpLeg
    {
        OFFSET 0.11995139718055725 0.0 0.0
        CHANNELS 3 Yrotation Zrotation Xrotation
        JOINT LeftLeg
        {
            OFFSET 0.0 -0.40014755725860596 0.0
            CHANNELS 3 Yrotation Zrotation Xrotation
            JOINT LeftFoot
            {
                OFFSET 0.0 -0.4052467942237854 0.0
                CHANNELS 3 Yrotation Zrotation Xrotation
                End Site LeftFoot_End
                {
                    OFFSET 0.0 0.0 0.1620987206697464
                }
            }
        }
    }
    JOINT Spine
    {
        OFFSET 0.0 0.23084762692451477 0.0
        CHANNELS 3 Yrotation Zrotation Xrotation
        JOINT Spine3
        {
            OFFSET 0.0 0.253961443901062 0.0
            CHANNELS 3 Yrotation Zrotation Xrotation
            JOINT Neck
            {
                OFFSET 0.0 0.19330669939517975 0.0
                CHANNELS 3 Yrotation Zrotation Xrotation
                End Site Head
                {
                    OFFSET 0.0 0.07732267677783966 0.0
                }
            }
            JOINT LeftArm
            {
                OFFSET 0.1790892481803894 0.0 0.0
                CHANNELS 3 Yrotation Zrotation Xrotation
                JOINT LeftForeArm
                {
                    OFFSET 0.3056281805038452 0.0 0.0
                    CHANNELS 3 Yrotation Zrotation Xrotation
                    JOINT LeftHand
                    {
                        OFFSET 0.2666656970977783 0.0 0.0
                        CHANNELS 3 Yrotation Zrotation Xrotation
                        End Site LeftWristEndSite
                        {
                            OFFSET 0.10666627436876297 0.0 0.0
                        }
                    }
                }
            }
            JOINT RightArm
            {
                OFFSET -0.1790892481803894 0.0 0.0
                CHANNELS 3 Yrotation Zrotation Xrotation
                JOINT RightForeArm
                {
                    OFFSET -0.3056281805038452 0.0 0.0
                    CHANNELS 3 Yrotation Zrotation Xrotation
                    JOINT RightHand
                    {
                        OFFSET -0.2666656970977783 0.0 0.0
                        CHANNELS 3 Yrotation Zrotation Xrotation
                        End Site RightWristEndSite
                        {
                            OFFSET -0.10666627436876297 0.0 0.0
                        }
                    }
                }
            }
        }
    }
}
MOTION
Frames: 12
Frame Time: 0.03333333333333333
-0.0 0.21127444505691528 0.0 24.080120931073754 169.00926006139812 -94.36870512566709 -0.23127756158649557 -11.741109594988568 -5.729036325028675 -2.0247359835460985 0.5431468626936228 -8.983447884542667 -1.5902773407317582e-15 7.951386703658791e-16 -1.1034765745125397e-32 -0.24522563149574467 4.706173887893554 -11.9149801499472 0.5364273394933842 0.44316546958785774 -6.837725726678335 -1.5902773407317582e-15 -3.1805546814635164e-15 4.4139062980501586e-32 -0.29433710529234447 -1.2667593675337607 -7.226847032168699 -9.401810606573363 -3.3338269269217977e-07 5.536222213790171e-06 -2.9069374094437177 -1.8478284886233443 15.001219697871303 -14.905893726696702 -85.34925503008216 -9.837986503291843 36.03537414074659 -8.402775498064377e-06 -5.2765467876950505e-06 -6.3611093629270335e-15 0.0 0.0 15.066630932178807 84.13931684110791 -15.493915284786928 -52.09853060338689 -1.919280204773283e-06 9.288356939620293e-07 0.0 6.3611093629270335e-15 0.0
-0.0 0.21127444505691528 0.0 24.15053706484105 167.8804987270121 -94.81382633107685 -0.30569835014135016 -12.31518876153229 -5.2520079771854595 -2.071315251170202 0.8599282015126265 -8.749026695307066 0.0 -1.5902773407317584e-15 0.0 -0.3176033973008344 4.483845043397114 -11.295026518829154 0.4847462146654406 0.020136582501390218 -8.101316058650685 -1.5902773407317584e-15 0.0 0.0 -0.3593970508859597 -1.382319274497364 -7.262921974689626 -10.006095345442736 6.080947902617688e-07 -8.625187218432236e-07 -3.192176305898241 -1.6120689845210319 15.033477793104115 -14.816965500824796 -85.44853347590089 -8.273108851563846 41.12410708939344 4.844438983474058e-06 5.960037134431264e-06 -3.1805546814635164e-15 1.7655625192200634e-31 -6.361109362927033e-15 14.958755691183967 84.34210206310473 -14.498900537401772 -56.28140307974933 -4.709335397921314e-06 -7.466798904120892e-07 4.413906298050159e-31 -6.3611093629270335e-15 7.951386703658792e-15
-0.0 0.21127444505691528 0.0 23.72570900577282 164.2122619140983 -96.37785362748852 -0.46467887571313793 -12.891619150361723 -3.325813939169746 -2.626175649416789 1.430435753291127 -11.007716521992567 4.4139062980501586e-32 7.951386703658794e-16 -6.361109362927035e-15 0.1177281874911101 3.9974864665585357 -11.902113669010348 0.1811326645317927 -1.2515273707081402 -8.491360448548127 0.0 -1.590277340731758e-15 0.0 -0.42036739229998604 -1.6989743716719823 -7.0900258699756025 -12.156857316010127 -1.6751860099988524e-07 1.751137004443587e-06 -2.2270948439652107 -1.421622195939893 14.266569213479785 -16.31273211497137 -85.87858539452662 -5.385202540203251 54.496134950067386 1.0635056340733654e-05 6.750140749030352e-06 -1.5902773407317584e-15 6.361109362927032e-15 6.361109362927032e-15 16.299520049051395 83.48748445471385 -15.002375306531224 -70.9126336355401 -2.7107667364292996e-06 1.8299320189154362e-07 0.0 0.0 -6.3611093629270335e-15
-0.0 0.21127444505691528 0.0 23.054469806339203 161.53854443102455 -97.19955978584352 -0.724276254130679 -13.317432348787817 -2.9935550747351196 -2.7185490543602926 2.322782996885546 -11.327041240524228 -8.827812596100317e-32 1.5902773407317584e-15 6.3611093629270335e-15 0.26267740815072854 3.9938302726847166 -13.522488279492405 0.00928436693104825 -1.5106072340360879 -6.9946439397124385 0.0 -5.565970692561154e-15 0.0 -0.5417016862435053 -1.9862261127238316 -7.061065004854123 -13.580785594971243 4.120364523360724e-07 -4.80832101309764e-07 -3.1544128578679644 -0.6924166695308241 14.137364000419442 -17.55380125913055 -85.80984938510181 -4.854713351214698 62.23532539743126 -3.587805460372021e-06 -6.585163154716218e-06 1.5902773407317582e-15 0.0 0.0 16.987116112520336 82.57410632884333 -16.543083941316667 -80.71125843862315 -1.6384842822279552e-05 1.585774796495101e-05 3.1805546814635168e-15 -6.3611093629270335e-15 -1.7655625192200634e-31
-0.0 0.21127444505691528 0.0 23.20790006021974 160.57260072442054 -97.6747010085984 -0.754200509055867 -13.981130461464055 -2.449580643915995 -2.864636865144198 3.0215558484003715 -11.642477883177806 1.590277340731758e-15 1.1927080055488184e-15 -6.361109362927032e-15 0.1532453487826403 3.4189971777433334 -13.976439614796295 -0.10106193278031095 -1.6316623885599648 -5.335305018117628 3.1805546814635168e-15 3.1805546814635168e-15 8.827812596100317e-32 -0.5946568419364798 -2.064638741319217 -6.991459192705101 -14.307942381875282 -1.990396575762593e-06 1.218243860661063e-06 -4.303120008123401 -1.200202280932426 14.045196397626857 -18.48565823579826 -85.7509589089967 -4.62288330897041 65.44734658201551 -4.442328529735083e-07 1.6167937605151516e-06 1.5902773407317584e-15 -8.827812596100317e-32 -6.3611093629270335e-15 17.290749692092668 82.35977861957731 -16.302440288186087 -82.66822671097336 2.6338560645330106e-05 -2.322700087836896e-05 3.1805546814635168e-15 0.0 0.0
-0.0 0.21127444505691528 0.0 22.922491748440656 159.35403826766205 -97.96457808903017 -0.8875774349743332 -14.706798089183112 -2.016897097043809 -2.546087586281573 4.634207912424496 -11.423001763645296 -2.2069531490250793e-31 1.9878466759146976e-15 1.2722218725854065e-14 0.46403339108728026 3.575757023431914 -15.390894634280512 -0.07993822141173147 -2.1606245147584624 -3.3389322013426814 -3.1805546814635168e-15 -7.951386703658792e-16 2.2069531490250793e-32 -0.5987085545806252 -2.21692925093509 -7.1173168697641245 -15.212787080993529 1.9057497174444508e-07 4.148176297665667e-06 -3.524423061892878 -1.1609232811648067 13.507454167336205 -19.33596008439851 -85.75660393751266 -4.7471076961116525 78.60452854201468 -1.1192809693391654e-05 -1.2616895808884381e-05 5.565970692561154e-15 -6.3611093629270335e-15 -3.089734408635111e-31 17.00463088845502 81.91292880936949 -17.37604543124742 -88.20277550168636 179.99991635770166 -179.99992262576524 0.0 0.0 3.1805546814635168e-15
-0.0 0.21127444505691528 0.0 22.712792328688042 157.40274143616364 -98.83267206323612 -0.5698737669401813 -14.729071100715775 -0.7322563104132048 -3.0426308368400057 4.145522616070646 -12.76201593975403 -1.5902773407317582e-15 -2.9817700138720468e-15 6.3611093629270335e-15 0.2968293359032892 2.971357471989785 -15.189718411838516 -0.18485792715955382 -2.5121322300317166 -4.060879132874287 0.0 -5.565970692561154e-15 0.0 -0.6316620537621508 -2.3294479151659786 -6.956787151805601 -16.216790711484762 4.627783495406464e-06 -5.739855292827243e-06 -3.088714931126851 -0.6914247271610025 13.07922907455813 -19.134114344435535 -86.19950858915293 -3.9010691723789725 79.38149225273122 5.551630088852262e-06 2.8431785848169607e-06 -2.3854160110976376e-15 0.0 0.0 16.530957293461736 81.6408678812436 -17.873385400907235 -87.23005244697299 179.99997578679813 -179.99997240962026 0.0 0.0 0.0
-0.0 0.21127444505691528 0.0 22.95006069633447 157.71021088201508 -98.3579005699402 -0.6022231898276393 -16.043848180866878 0.2680565118420464 -3.2692063612054505 6.539423597236996 -14.747304164851924 1.5902773407317584e-15 -1.1927080055488188e-15 -6.3611093629270335e-15 0.6246530012107262 3.3877440048089875 -16.54691003104846 -0.08672530483409276 -3.182487639972026 -1.5274746790011793 0.0 -2.3854160110976376e-15 0.0 -0.6790730670352103 -2.360196373016685 -7.081351845656548 -16.985401042611144 1.1814079813947255e-06 -1.9259995812265385e-06 -5.25488503677405 -1.466255412053184 13.557738031333443 -19.01385857486667 -85.37829112483257 -5.943324679968733 89.20440678152566 5.858849120265878e-05 5.073507114066079e-05 -6.212020862233431e-16 0.0 0.0 16.72838419773528 81.40818601024279 -18.83514984935831 -81.61799761444996 -179.99997235969653 179.9999744649652 -2.2069531490250793e-32 -6.3611093629270335e-15 -3.975693351829396e-16
-0.0 0.21127444505691528 0.0 22.88028117335732 157.72066997380355 -98.15774466228066 -0.22756622331558127 -15.85954494194694 1.4850087823629834 -3.84438232725174 6.483303504037796 -17.774630575039907 0.0 -1.5902773407317584e-15 0.0 0.8601355453509697 3.812115256760873 -17.75536683512063 0.01836329234730204 -3.557346990863384 0.3592719895136888 -8.827812596100317e-32 -1.5902773407317584e-15 -6.3611093629270335e-15 -0.663633553862896 -2.4239635751612574 -7.184854823272563 -17.054757826621778 -4.821022486416918e-06 6.458081803073038e-06 -3.1549551717564888 -1.1867602992773079 13.185795643409984 -17.781375019090653 -84.61217457675347 -8.279627621034818 86.4863353203929 179.9999879455868 179.99999038755124 -1.987846675914698e-15 5.517382872562698e-32 -3.1805546814635168e-15 14.902366510413268 81.09869206399335 -20.488206390504786 -78.6341252588983 179.99997566062058 -179.99997456239444 0.0 0.0 -3.1805546814635168e-15
-0.0 0.21127444505691528 0.0 22.75846589787755 156.84571279507014 -98.40578280609151 0.1634984702269057 -16.011029512625036 2.5193099147426605 -3.8913312124810675 7.042182761823332 -18.48016281811067 -1.5902773407317584e-15 -9.93923337957349e-16 6.3611093629270335e-15 0.5953201976071243 3.1895341792728864 -18.012734200839603 -0.0011108379089012823 -3.3904010796358612 -0.018107552714473885 0.0 0.0 6.3611093629270335e-15 -0.6876205547039691 -2.505043326588566 -7.227687360056355 -17.701190752267173 -1.3322279203282587e-06 5.558702745789342e-07 -4.330882257772345 -1.0695055628055279 12.649580312583682 -17.17962197458786 -84.17333696000891 -9.135725467489019 82.36258956613936 179.99999746129566 179.99999603447512 -1.590277340731758e-15 0.0 0.0 14.10783371746809 80.65743462425084 -21.594882004454135 -75.72236032361226 -179.99998003946664 179.99998329704744 1.5902773407317584e-15 0.0 0.0
-0.0 0.21127444505691528 0.0 22.54076460346993 155.44330634176666 -98.64391979959277 1.0172312678656075 -16.28678557868088 5.02857795172824 -5.167993380947302 7.435744339543207 -23.5026723826826 -1.5902773407317584e-15 1.1927080055488188e-15 -1.6552148617688095e-32 0.7296732211948359 3.7749006470094866 -19.027996627156504 0.08473773493664974 -4.454754251786119 1.1344343387339824 3.1805546814635168e-15 -1.987846675914698e-15 -6.3611093629270335e-15 -0.7501919556203779 -2.6696756946476263 -7.265894391522036 -19.044929616552178 -6.810058966700128e-07 2.674543237854166e-06 -4.2028197976289645 -0.6382042390913708 12.626794215754678 -14.707635868810122 -83.64153517777261 -11.571420618567581 76.26999421233377 179.99998965318295 179.99999351171408 7.951386703658792e-16 0.0 0.0 10.805698413962864 80.35724544631269 -22.395077982176648 -69.60966642806703 179.9999890445559 -179.9999899375195 -7.951386703658792e-16 6.3611093629270335e-15 -4.4139062980501586e-32
-0.0 0.21127444505691528 0.0 22.51879194245558 154.44459001236316 -99.00735835854292 1.4700977156741848 -16.480279280455846 6.345346545633809 -5.4139668511692545 7.8240736455266555 -24.817112897173224 -1.590277340731758e-15 1.4908850069360232e-15 -2.0690185772110117e-32 0.4773164251329028 3.0114329824802684 -19.2497772877692 0.11338658193347442 -4.0374340395912425 1.3798486622928037 -1.9862578341225716e-31 3.578124016646457e-15 6.3611093629270335e-15 -0.7912087531055039 -2.8184581151387578 -7.462877572973757 -19.840469168676815 1.29399835516957e-06 -2.5336513686895943e-06 -4.275436148771353 -0.7772269675984145 12.35493361987881 -14.738533378177385 -83.81258769765603 -12.073007068424948 75.15461408158384 -179.99999394085694 -179.99999568502457 -1.7655625192200634e-31 6.3611093629270335e-15 3.1805546814635168e-15 9.691904902439695 79.70899409998177 -23.618354141265595 -68.98504956274162 179.9999883039712 -179.9999898448038 2.385416011097637e-15 -3.310429723537619e-32 -1.5902773407317582e-15
